<?xml version="1.0" encoding="UTF-8" standalone="no"?>
<svg xmlns="http://www.w3.org/2000/svg" xmlns:xlink="http://www.w3.org/1999/xlink" contentScriptType="application/ecmascript" contentStyleType="text/css" height="866px" preserveAspectRatio="none" style="width:915px;height:866px;" version="1.1" viewBox="0 0 915 866" width="915px" zoomAndPan="magnify"><defs><filter height="300%" id="f1wit27g6ltam8" width="300%" x="-1" y="-1"><feGaussianBlur result="blurOut" stdDeviation="2.0"/><feColorMatrix in="blurOut" result="blurOut2" type="matrix" values="0 0 0 0 0 0 0 0 0 0 0 0 0 0 0 0 0 0 .4 0"/><feOffset dx="4.0" dy="4.0" in="blurOut2" result="blurOut3"/><feBlend in="SourceGraphic" in2="blurOut3" mode="normal"/></filter></defs><g><!--MD5=[3f544705c2d16c925a2869dc8b1fd45c]
cluster org.eclipse.keyple.core.seproxy.event--><polygon fill="#FFFFFF" filter="url(#f1wit27g6ltam8)" points="22,24,333,24,340,46.2969,893,46.2969,893,854,22,854,22,24" style="stroke: #000000; stroke-width: 1.5;"/><line style="stroke: #000000; stroke-width: 1.5;" x1="22" x2="340" y1="46.2969" y2="46.2969"/><text fill="#000000" font-family="sans-serif" font-size="14" font-weight="bold" lengthAdjust="spacingAndGlyphs" textLength="305" x="26" y="38.9951">org.eclipse.keyple.core.seproxy.event</text><!--MD5=[071fb05b602bfdbfba7de3999663c7de]
class EventType_Reader--><rect fill="#FEFECE" filter="url(#f1wit27g6ltam8)" height="137.6328" id="EventType_Reader" style="stroke: #A80036; stroke-width: 1.5;" width="207" x="402.5" y="59"/><ellipse cx="464.25" cy="75" fill="#EB937F" rx="11" ry="11" style="stroke: #A80036; stroke-width: 1.0;"/><path d="M462.5469,75.875 L462.5469,78.2969 L466.9063,78.2969 L466.9063,77.4219 C466.9063,76.9375 466.9375,76.7969 467.0469,76.6406 C467.2188,76.3906 467.4844,76.2813 467.75,76.2813 C468.0313,76.2813 468.3125,76.4375 468.4844,76.6875 C468.5625,76.8438 468.5938,76.9844 468.5938,77.4219 L468.5938,80 L460.5938,80 C460.2031,80 459.9688,79.9531 459.8281,79.8281 C459.6094,79.6719 459.4688,79.4219 459.4688,79.1563 C459.4688,78.8594 459.625,78.5938 459.875,78.4219 C460.0313,78.3125 460.1875,78.2969 460.5938,78.2969 L460.8438,78.2969 L460.8438,71.7813 L460.5938,71.7813 C460.1719,71.7813 459.9844,71.75 459.8281,71.6406 C459.6094,71.4688 459.4688,71.2188 459.4688,70.9375 C459.4688,70.6563 459.625,70.3594 459.875,70.2031 C460.0313,70.1094 460.1563,70.0938 460.5938,70.0938 L468.2188,70.0938 L468.2188,72.6406 C468.2188,73.1094 468.1875,73.25 468.0781,73.4219 C467.9063,73.6406 467.6406,73.7813 467.375,73.7813 C467.0938,73.7813 466.8125,73.625 466.6406,73.375 C466.5625,73.2188 466.5313,73.0469 466.5313,72.6406 L466.5313,71.7813 L462.5469,71.7813 L462.5469,74.1875 L464,74.1875 L464,74.0625 C464,73.6094 464.0313,73.4531 464.1406,73.2813 C464.3125,73.0625 464.5781,72.9219 464.8281,72.9219 C465.2813,72.9219 465.5938,73.2344 465.6563,73.7031 C465.6719,73.8594 465.6719,73.9063 465.6719,74.0625 L465.6719,75.9844 C465.6719,76.4375 465.6406,76.5938 465.5156,76.75 C465.3594,76.9688 465.0938,77.1094 464.8438,77.1094 C464.5469,77.1094 464.2656,76.9531 464.1094,76.7031 C464.0313,76.5469 464,76.3906 464,75.9844 L464,75.875 Z "/><ellipse cx="489.75" cy="74.5" fill="#84BE84" rx="3" ry="3" style="stroke: #038048; stroke-width: 1.0;"/><text fill="#000000" font-family="sans-serif" font-size="12" lengthAdjust="spacingAndGlyphs" textLength="64" x="495.75" y="79.1543">EventType</text><line style="stroke: #A80036; stroke-width: 1.5;" x1="403.5" x2="608.5" y1="91" y2="91"/><line style="stroke: #A80036; stroke-width: 1.5;" x1="403.5" x2="608.5" y1="99" y2="99"/><text fill="#000000" font-family="sans-serif" font-size="11" lengthAdjust="spacingAndGlyphs" textLength="181" x="422.5" y="113.2104">IO_ERROR("SE Reader IO Error")</text><text fill="#000000" font-family="sans-serif" font-size="11" lengthAdjust="spacingAndGlyphs" textLength="163" x="422.5" y="126.0151">SE_INSERTED("SE insertion")</text><text fill="#000000" font-family="sans-serif" font-size="11" lengthAdjust="spacingAndGlyphs" textLength="161" x="422.5" y="138.8198">SE_MATCHED("SE matched")</text><text fill="#000000" font-family="sans-serif" font-size="11" lengthAdjust="spacingAndGlyphs" textLength="156" x="422.5" y="151.6245">SE_REMOVAL("SE removal")</text><text fill="#000000" font-family="sans-serif" font-size="11" lengthAdjust="spacingAndGlyphs" textLength="0" x="426.5" y="164.4292"/><ellipse cx="413.5" cy="174.0234" fill="#84BE84" rx="3" ry="3" style="stroke: #038048; stroke-width: 1.0;"/><text fill="#000000" font-family="sans-serif" font-size="11" lengthAdjust="spacingAndGlyphs" textLength="140" x="422.5" y="177.2339">EventType(String name);</text><ellipse cx="413.5" cy="186.8281" fill="#84BE84" rx="3" ry="3" style="stroke: #038048; stroke-width: 1.0;"/><text fill="#000000" font-family="sans-serif" font-size="11" lengthAdjust="spacingAndGlyphs" textLength="101" x="422.5" y="190.0386">String getName();</text><!--MD5=[9a5f54023274c57ee24edb1ade6872b1]
class ReaderEvent--><rect fill="#FEFECE" filter="url(#f1wit27g6ltam8)" height="124.8281" id="ReaderEvent" style="stroke: #A80036; stroke-width: 1.5;" width="455" x="278.5" y="274"/><ellipse cx="438.75" cy="290" fill="#ADD1B2" rx="11" ry="11" style="stroke: #A80036; stroke-width: 1.0;"/><path d="M441.0938,285.6719 L441.2656,285.75 C441.4844,285.4375 441.6875,285.3438 441.9844,285.3438 C442.2813,285.3438 442.5625,285.4844 442.7188,285.75 C442.8125,285.9063 442.8281,286.0313 442.8281,286.4688 L442.8281,287.8906 C442.8281,288.3125 442.7969,288.5 442.6875,288.6563 C442.5156,288.875 442.25,289.0156 441.9844,289.0156 C441.7656,289.0156 441.5313,288.9063 441.3906,288.7656 C441.25,288.6406 441.2188,288.5156 441.1563,288.1094 C441.0625,287.7031 440.8906,287.4844 440.4063,287.2031 C439.9375,286.9531 439.3281,286.7969 438.75,286.7969 C437.0156,286.7969 435.7656,288.1094 435.7656,289.8906 L435.7656,290.9844 C435.7656,292.6875 437.0625,293.7813 439.1094,293.7813 C439.875,293.7813 440.5625,293.6563 440.9844,293.3906 C441.1719,293.2969 441.1719,293.2969 441.625,292.8125 C441.8125,292.625 442.0156,292.5469 442.2344,292.5469 C442.7031,292.5469 443.0938,292.9375 443.0938,293.3906 C443.0938,293.7813 442.7656,294.2344 442.1875,294.6406 C441.4375,295.1875 440.2813,295.4844 439.0625,295.4844 C436.1719,295.4844 434.0625,293.5938 434.0625,291.0156 L434.0625,289.8906 C434.0625,287.1719 436.0625,285.0938 438.6875,285.0938 C439.5625,285.0938 440.1563,285.2344 441.0938,285.6719 Z "/><ellipse cx="464.25" cy="289.5" fill="#84BE84" rx="3" ry="3" style="stroke: #038048; stroke-width: 1.0;"/><text fill="#000000" font-family="sans-serif" font-size="12" font-weight="bold" lengthAdjust="spacingAndGlyphs" textLength="31" x="470.25" y="294.1543">final</text><text fill="#000000" font-family="sans-serif" font-size="12" lengthAdjust="spacingAndGlyphs" textLength="80" x="505.25" y="294.1543">ReaderEvent</text><line style="stroke: #A80036; stroke-width: 1.5;" x1="279.5" x2="732.5" y1="306" y2="306"/><line style="stroke: #A80036; stroke-width: 1.5;" x1="279.5" x2="732.5" y1="314" y2="314"/><ellipse cx="289.5" cy="325" fill="#84BE84" rx="3" ry="3" style="stroke: #038048; stroke-width: 1.0;"/><text fill="#000000" font-family="sans-serif" font-size="11" lengthAdjust="spacingAndGlyphs" textLength="429" x="298.5" y="328.2104">ReaderEvent(String pluginName, String readerName, EventType eventType,</text><text fill="#000000" font-family="sans-serif" font-size="11" lengthAdjust="spacingAndGlyphs" textLength="321" x="298.5" y="341.0151">DefaultSelectionsResponse defaultSelectionsResponse);</text><ellipse cx="289.5" cy="350.6094" fill="#84BE84" rx="3" ry="3" style="stroke: #038048; stroke-width: 1.0;"/><text fill="#000000" font-family="sans-serif" font-size="11" lengthAdjust="spacingAndGlyphs" textLength="135" x="298.5" y="353.8198">String getPluginName();</text><ellipse cx="289.5" cy="363.4141" fill="#84BE84" rx="3" ry="3" style="stroke: #038048; stroke-width: 1.0;"/><text fill="#000000" font-family="sans-serif" font-size="11" lengthAdjust="spacingAndGlyphs" textLength="141" x="298.5" y="366.6245">String getReaderName();</text><ellipse cx="289.5" cy="376.2188" fill="#84BE84" rx="3" ry="3" style="stroke: #038048; stroke-width: 1.0;"/><text fill="#000000" font-family="sans-serif" font-size="11" lengthAdjust="spacingAndGlyphs" textLength="150" x="298.5" y="379.4292">EventType getEventType();</text><ellipse cx="289.5" cy="389.0234" fill="#84BE84" rx="3" ry="3" style="stroke: #038048; stroke-width: 1.0;"/><text fill="#000000" font-family="sans-serif" font-size="11" lengthAdjust="spacingAndGlyphs" textLength="391" x="298.5" y="392.2339">AbstractDefaultSelectionsResponse getDefaultSelectionsResponse();</text><!--MD5=[35b709ead7a86e7b2780a25fdb99ded4]
class ReaderObserver--><rect fill="#FEFECE" filter="url(#f1wit27g6ltam8)" height="60.8047" id="ReaderObserver" style="stroke: #A80036; stroke-width: 1.5;" width="179" x="151.5" y="97.5"/><ellipse cx="183.15" cy="113.5" fill="#B4A7E5" rx="11" ry="11" style="stroke: #A80036; stroke-width: 1.0;"/><path d="M184.1031,110.2813 L184.1031,116.7969 L185.8219,116.7969 C186.275,116.7969 186.4156,116.8281 186.5875,116.9531 C186.8219,117.125 186.9313,117.375 186.9313,117.6563 C186.9313,118.2188 186.5719,118.5 185.8219,118.5 L180.6813,118.5 C180.275,118.5 180.0719,118.4531 179.9156,118.3281 C179.6969,118.1719 179.5563,117.9063 179.5563,117.6563 C179.5563,117.3594 179.7125,117.0781 179.9625,116.9219 C180.1188,116.8125 180.2438,116.7969 180.6813,116.7969 L182.4,116.7969 L182.4,110.2813 L180.6813,110.2813 C180.2594,110.2813 180.0719,110.25 179.9156,110.1406 C179.6969,109.9688 179.5563,109.7188 179.5563,109.4375 C179.5563,109.1563 179.7125,108.8594 179.9625,108.7031 C180.1188,108.6094 180.2438,108.5938 180.6813,108.5938 L185.8219,108.5938 C186.275,108.5938 186.4156,108.625 186.5875,108.7344 C186.8219,108.9063 186.9313,109.1719 186.9313,109.4375 C186.9313,109.7344 186.7906,110.0156 186.525,110.1719 C186.4,110.25 186.2125,110.2813 185.8219,110.2813 Z "/><ellipse cx="205.85" cy="113" fill="#84BE84" rx="3" ry="3" style="stroke: #038048; stroke-width: 1.0;"/><text fill="#000000" font-family="sans-serif" font-size="12" font-style="italic" lengthAdjust="spacingAndGlyphs" textLength="99" x="211.85" y="117.6543">ReaderObserver</text><line style="stroke: #A80036; stroke-width: 1.5;" x1="152.5" x2="329.5" y1="129.5" y2="129.5"/><line style="stroke: #A80036; stroke-width: 1.5;" x1="152.5" x2="329.5" y1="137.5" y2="137.5"/><ellipse cx="162.5" cy="148.5" fill="#84BE84" rx="3" ry="3" style="stroke: #038048; stroke-width: 1.0;"/><text fill="#000000" font-family="sans-serif" font-size="11" lengthAdjust="spacingAndGlyphs" textLength="153" x="171.5" y="151.7104">update(ReaderEvent event)</text><!--MD5=[b4b6a5721e02f7cea6ba89274ea67351]
class NotificationMode--><rect fill="#FEFECE" filter="url(#f1wit27g6ltam8)" height="124.8281" id="NotificationMode" style="stroke: #A80036; stroke-width: 1.5;" width="223" x="61.5" y="713"/><ellipse cx="110.75" cy="729" fill="#EB937F" rx="11" ry="11" style="stroke: #A80036; stroke-width: 1.0;"/><path d="M109.0469,729.875 L109.0469,732.2969 L113.4063,732.2969 L113.4063,731.4219 C113.4063,730.9375 113.4375,730.7969 113.5469,730.6406 C113.7188,730.3906 113.9844,730.2813 114.25,730.2813 C114.5313,730.2813 114.8125,730.4375 114.9844,730.6875 C115.0625,730.8438 115.0938,730.9844 115.0938,731.4219 L115.0938,734 L107.0938,734 C106.7031,734 106.4688,733.9531 106.3281,733.8281 C106.1094,733.6719 105.9688,733.4219 105.9688,733.1563 C105.9688,732.8594 106.125,732.5938 106.375,732.4219 C106.5313,732.3125 106.6875,732.2969 107.0938,732.2969 L107.3438,732.2969 L107.3438,725.7813 L107.0938,725.7813 C106.6719,725.7813 106.4844,725.75 106.3281,725.6406 C106.1094,725.4688 105.9688,725.2188 105.9688,724.9375 C105.9688,724.6563 106.125,724.3594 106.375,724.2031 C106.5313,724.1094 106.6563,724.0938 107.0938,724.0938 L114.7188,724.0938 L114.7188,726.6406 C114.7188,727.1094 114.6875,727.25 114.5781,727.4219 C114.4063,727.6406 114.1406,727.7813 113.875,727.7813 C113.5938,727.7813 113.3125,727.625 113.1406,727.375 C113.0625,727.2188 113.0313,727.0469 113.0313,726.6406 L113.0313,725.7813 L109.0469,725.7813 L109.0469,728.1875 L110.5,728.1875 L110.5,728.0625 C110.5,727.6094 110.5313,727.4531 110.6406,727.2813 C110.8125,727.0625 111.0781,726.9219 111.3281,726.9219 C111.7813,726.9219 112.0938,727.2344 112.1563,727.7031 C112.1719,727.8594 112.1719,727.9063 112.1719,728.0625 L112.1719,729.9844 C112.1719,730.4375 112.1406,730.5938 112.0156,730.75 C111.8594,730.9688 111.5938,731.1094 111.3438,731.1094 C111.0469,731.1094 110.7656,730.9531 110.6094,730.7031 C110.5313,730.5469 110.5,730.3906 110.5,729.9844 L110.5,729.875 Z "/><ellipse cx="136.25" cy="728.5" fill="#84BE84" rx="3" ry="3" style="stroke: #038048; stroke-width: 1.0;"/><text fill="#000000" font-family="sans-serif" font-size="12" lengthAdjust="spacingAndGlyphs" textLength="105" x="142.25" y="733.1543">NotificationMode</text><line style="stroke: #A80036; stroke-width: 1.5;" x1="62.5" x2="283.5" y1="745" y2="745"/><line style="stroke: #A80036; stroke-width: 1.5;" x1="62.5" x2="283.5" y1="753" y2="753"/><text fill="#000000" font-family="sans-serif" font-size="11" lengthAdjust="spacingAndGlyphs" textLength="101" x="81.5" y="767.2104">ALWAYS("always")</text><text fill="#000000" font-family="sans-serif" font-size="11" lengthAdjust="spacingAndGlyphs" textLength="186" x="81.5" y="780.0151">MATCHED_ONLY("matched_only")</text><text fill="#000000" font-family="sans-serif" font-size="11" lengthAdjust="spacingAndGlyphs" textLength="0" x="85.5" y="792.8198"/><ellipse cx="72.5" cy="802.4141" fill="#84BE84" rx="3" ry="3" style="stroke: #038048; stroke-width: 1.0;"/><text fill="#000000" font-family="sans-serif" font-size="11" lengthAdjust="spacingAndGlyphs" textLength="175" x="81.5" y="805.6245">NotificationMode(String name);</text><ellipse cx="72.5" cy="815.2188" fill="#84BE84" rx="3" ry="3" style="stroke: #038048; stroke-width: 1.0;"/><text fill="#000000" font-family="sans-serif" font-size="11" lengthAdjust="spacingAndGlyphs" textLength="101" x="81.5" y="818.4292">String getName();</text><ellipse cx="72.5" cy="828.0234" fill="#84BE84" rx="3" ry="3" style="stroke: #038048; stroke-width: 1.0;"/><text fill="#000000" font-family="sans-serif" font-size="11" lengthAdjust="spacingAndGlyphs" text-decoration="underline" textLength="197" x="81.5" y="831.2339">NotificationMode get(String name);</text><!--MD5=[4db98615c12e554c8946e39d7c0e78ca]
class PollingMode--><rect fill="#FEFECE" filter="url(#f1wit27g6ltam8)" height="73.6094" id="PollingMode" style="stroke: #A80036; stroke-width: 1.5;" width="118" x="320" y="738.5"/><ellipse cx="335" cy="754.5" fill="#EB937F" rx="11" ry="11" style="stroke: #A80036; stroke-width: 1.0;"/><path d="M333.2969,755.375 L333.2969,757.7969 L337.6563,757.7969 L337.6563,756.9219 C337.6563,756.4375 337.6875,756.2969 337.7969,756.1406 C337.9688,755.8906 338.2344,755.7813 338.5,755.7813 C338.7813,755.7813 339.0625,755.9375 339.2344,756.1875 C339.3125,756.3438 339.3438,756.4844 339.3438,756.9219 L339.3438,759.5 L331.3438,759.5 C330.9531,759.5 330.7188,759.4531 330.5781,759.3281 C330.3594,759.1719 330.2188,758.9219 330.2188,758.6563 C330.2188,758.3594 330.375,758.0938 330.625,757.9219 C330.7813,757.8125 330.9375,757.7969 331.3438,757.7969 L331.5938,757.7969 L331.5938,751.2813 L331.3438,751.2813 C330.9219,751.2813 330.7344,751.25 330.5781,751.1406 C330.3594,750.9688 330.2188,750.7188 330.2188,750.4375 C330.2188,750.1563 330.375,749.8594 330.625,749.7031 C330.7813,749.6094 330.9063,749.5938 331.3438,749.5938 L338.9688,749.5938 L338.9688,752.1406 C338.9688,752.6094 338.9375,752.75 338.8281,752.9219 C338.6563,753.1406 338.3906,753.2813 338.125,753.2813 C337.8438,753.2813 337.5625,753.125 337.3906,752.875 C337.3125,752.7188 337.2813,752.5469 337.2813,752.1406 L337.2813,751.2813 L333.2969,751.2813 L333.2969,753.6875 L334.75,753.6875 L334.75,753.5625 C334.75,753.1094 334.7813,752.9531 334.8906,752.7813 C335.0625,752.5625 335.3281,752.4219 335.5781,752.4219 C336.0313,752.4219 336.3438,752.7344 336.4063,753.2031 C336.4219,753.3594 336.4219,753.4063 336.4219,753.5625 L336.4219,755.4844 C336.4219,755.9375 336.3906,756.0938 336.2656,756.25 C336.1094,756.4688 335.8438,756.6094 335.5938,756.6094 C335.2969,756.6094 335.0156,756.4531 334.8594,756.2031 C334.7813,756.0469 334.75,755.8906 334.75,755.4844 L334.75,755.375 Z "/><ellipse cx="354" cy="754" fill="#84BE84" rx="3" ry="3" style="stroke: #038048; stroke-width: 1.0;"/><text fill="#000000" font-family="sans-serif" font-size="12" lengthAdjust="spacingAndGlyphs" textLength="75" x="360" y="758.6543">PollingMode</text><line style="stroke: #A80036; stroke-width: 1.5;" x1="321" x2="437" y1="770.5" y2="770.5"/><text fill="#000000" font-family="sans-serif" font-size="11" lengthAdjust="spacingAndGlyphs" textLength="66" x="326" y="784.7104">REPEATING,</text><text fill="#000000" font-family="sans-serif" font-size="11" lengthAdjust="spacingAndGlyphs" textLength="73" x="326" y="797.5151">SINGLESHOT</text><line style="stroke: #A80036; stroke-width: 1.5;" x1="321" x2="437" y1="804.1094" y2="804.1094"/><!--MD5=[cfa5e1a9c30861ac5ad043f1201ace69]
class AbstractDefaultSelectionsRequest--><rect fill="#FEFECE" filter="url(#f1wit27g6ltam8)" height="86.4141" id="AbstractDefaultSelectionsRequest" style="stroke: #A80036; stroke-width: 1.5;" width="350" x="527" y="505"/><ellipse cx="586.25" cy="521" fill="#A9DCDF" rx="11" ry="11" style="stroke: #A80036; stroke-width: 1.0;"/><path d="M587.8281,522.8125 L583.7813,522.8125 L583.3906,523.7969 L583.7813,523.7969 C584.2344,523.7969 584.375,523.8281 584.5469,523.9531 C584.7656,524.125 584.8906,524.375 584.8906,524.6563 C584.8906,524.9375 584.75,525.2344 584.4844,525.375 C584.3594,525.4688 584.1406,525.5 583.7813,525.5 L581.5156,525.5 C580.7656,525.5 580.3906,525.2188 580.3906,524.6563 C580.3906,524.3594 580.5469,524.0781 580.7969,523.9219 C580.9531,523.8125 581.1094,523.7969 581.5313,523.7969 L584.1719,517.2813 L583.0938,517.2813 C582.6563,517.2813 582.4844,517.25 582.3125,517.1406 C582.0938,516.9688 581.9531,516.7188 581.9531,516.4375 C581.9531,516.1563 582.1094,515.875 582.3594,515.7031 C582.5156,515.6094 582.6406,515.5938 583.0938,515.5938 L586.7656,515.5938 L590.1563,523.7969 C590.625,523.7969 590.7813,523.8281 590.9531,523.9688 C591.1719,524.125 591.3125,524.375 591.3125,524.6563 C591.3125,524.9375 591.1563,525.2344 590.9063,525.375 C590.7656,525.4688 590.5469,525.5 590.1875,525.5 L587.8281,525.5 C587.4063,525.5 587.2031,525.4531 587.0625,525.3281 C586.8438,525.1719 586.7031,524.9219 586.7031,524.6563 C586.7031,524.3594 586.8594,524.0781 587.1094,523.9219 C587.2656,523.8125 587.375,523.7969 587.8281,523.7969 L588.2188,523.7969 Z M587.125,521.1094 L585.7969,517.8438 L584.4531,521.1094 Z "/><ellipse cx="611.75" cy="520.5" fill="#84BE84" rx="3" ry="3" style="stroke: #038048; stroke-width: 1.0;"/><text fill="#000000" font-family="sans-serif" font-size="12" font-style="italic" lengthAdjust="spacingAndGlyphs" textLength="212" x="617.75" y="525.1543">AbstractDefaultSelectionsRequest</text><line style="stroke: #A80036; stroke-width: 1.5;" x1="528" x2="876" y1="537" y2="537"/><line style="stroke: #A80036; stroke-width: 1.5;" x1="528" x2="876" y1="545" y2="545"/><polygon fill="#FFFF44" points="538,551,542,555,538,559,534,555" style="stroke: #B38D22; stroke-width: 1.0;"/><text fill="#000000" font-family="sans-serif" font-size="11" font-style="italic" lengthAdjust="spacingAndGlyphs" textLength="255" x="547" y="559.2104">Set&lt;SeRequest&gt; getSelectionSeRequestSet()</text><polygon fill="#FFFF44" points="538,563.8047,542,567.8047,538,571.8047,534,567.8047" style="stroke: #B38D22; stroke-width: 1.0;"/><text fill="#000000" font-family="sans-serif" font-size="11" font-style="italic" lengthAdjust="spacingAndGlyphs" textLength="324" x="547" y="572.0151">MultiSeRequestProcessing getMultiSeRequestProcessing()</text><polygon fill="#FFFF44" points="538,576.6094,542,580.6094,538,584.6094,534,580.6094" style="stroke: #B38D22; stroke-width: 1.0;"/><text fill="#000000" font-family="sans-serif" font-size="11" font-style="italic" lengthAdjust="spacingAndGlyphs" textLength="204" x="547" y="584.8198">ChannelControl getChannelControl()</text><!--MD5=[8f41c7e8d8e3ce316d782de639711bb6]
class AbstractDefaultSelectionsResponse--><rect fill="#FEFECE" filter="url(#f1wit27g6ltam8)" height="60.8047" id="AbstractDefaultSelectionsResponse" style="stroke: #A80036; stroke-width: 1.5;" width="300" x="487" y="745"/><ellipse cx="518.2" cy="761" fill="#A9DCDF" rx="11" ry="11" style="stroke: #A80036; stroke-width: 1.0;"/><path d="M519.7781,762.8125 L515.7313,762.8125 L515.3406,763.7969 L515.7313,763.7969 C516.1844,763.7969 516.325,763.8281 516.4969,763.9531 C516.7156,764.125 516.8406,764.375 516.8406,764.6563 C516.8406,764.9375 516.7,765.2344 516.4344,765.375 C516.3094,765.4688 516.0906,765.5 515.7313,765.5 L513.4656,765.5 C512.7156,765.5 512.3406,765.2188 512.3406,764.6563 C512.3406,764.3594 512.4969,764.0781 512.7469,763.9219 C512.9031,763.8125 513.0594,763.7969 513.4813,763.7969 L516.1219,757.2813 L515.0438,757.2813 C514.6063,757.2813 514.4344,757.25 514.2625,757.1406 C514.0438,756.9688 513.9031,756.7188 513.9031,756.4375 C513.9031,756.1563 514.0594,755.875 514.3094,755.7031 C514.4656,755.6094 514.5906,755.5938 515.0438,755.5938 L518.7156,755.5938 L522.1063,763.7969 C522.575,763.7969 522.7313,763.8281 522.9031,763.9688 C523.1219,764.125 523.2625,764.375 523.2625,764.6563 C523.2625,764.9375 523.1063,765.2344 522.8563,765.375 C522.7156,765.4688 522.4969,765.5 522.1375,765.5 L519.7781,765.5 C519.3563,765.5 519.1531,765.4531 519.0125,765.3281 C518.7938,765.1719 518.6531,764.9219 518.6531,764.6563 C518.6531,764.3594 518.8094,764.0781 519.0594,763.9219 C519.2156,763.8125 519.325,763.7969 519.7781,763.7969 L520.1688,763.7969 Z M519.075,761.1094 L517.7469,757.8438 L516.4031,761.1094 Z "/><ellipse cx="540.8" cy="760.5" fill="#84BE84" rx="3" ry="3" style="stroke: #038048; stroke-width: 1.0;"/><text fill="#000000" font-family="sans-serif" font-size="12" font-style="italic" lengthAdjust="spacingAndGlyphs" textLength="221" x="546.8" y="765.1543">AbstractDefaultSelectionsResponse</text><line style="stroke: #A80036; stroke-width: 1.5;" x1="488" x2="786" y1="777" y2="777"/><line style="stroke: #A80036; stroke-width: 1.5;" x1="488" x2="786" y1="785" y2="785"/><polygon fill="#FFFF44" points="498,791,502,795,498,799,494,795" style="stroke: #B38D22; stroke-width: 1.0;"/><text fill="#000000" font-family="sans-serif" font-size="11" font-style="italic" lengthAdjust="spacingAndGlyphs" textLength="274" x="507" y="799.2104">List&lt;SeResponse&gt; getSelectionSeResponseSet()</text><!--MD5=[e2341a3d5316e117132fc49473ae3219]
class ObservableReader--><rect fill="#FEFECE" filter="url(#f1wit27g6ltam8)" height="176.0469" id="ObservableReader" style="stroke: #A80036; stroke-width: 1.5;" width="405" x="38.5" y="460"/><ellipse cx="174.75" cy="476" fill="#B4A7E5" rx="11" ry="11" style="stroke: #A80036; stroke-width: 1.0;"/><path d="M175.7031,472.7813 L175.7031,479.2969 L177.4219,479.2969 C177.875,479.2969 178.0156,479.3281 178.1875,479.4531 C178.4219,479.625 178.5313,479.875 178.5313,480.1563 C178.5313,480.7188 178.1719,481 177.4219,481 L172.2813,481 C171.875,481 171.6719,480.9531 171.5156,480.8281 C171.2969,480.6719 171.1563,480.4063 171.1563,480.1563 C171.1563,479.8594 171.3125,479.5781 171.5625,479.4219 C171.7188,479.3125 171.8438,479.2969 172.2813,479.2969 L174,479.2969 L174,472.7813 L172.2813,472.7813 C171.8594,472.7813 171.6719,472.75 171.5156,472.6406 C171.2969,472.4688 171.1563,472.2188 171.1563,471.9375 C171.1563,471.6563 171.3125,471.3594 171.5625,471.2031 C171.7188,471.1094 171.8438,471.0938 172.2813,471.0938 L177.4219,471.0938 C177.875,471.0938 178.0156,471.125 178.1875,471.2344 C178.4219,471.4063 178.5313,471.6719 178.5313,471.9375 C178.5313,472.2344 178.3906,472.5156 178.125,472.6719 C178,472.75 177.8125,472.7813 177.4219,472.7813 Z "/><ellipse cx="200.25" cy="475.5" fill="#84BE84" rx="3" ry="3" style="stroke: #038048; stroke-width: 1.0;"/><text fill="#000000" font-family="sans-serif" font-size="12" font-style="italic" lengthAdjust="spacingAndGlyphs" textLength="113" x="206.25" y="480.1543">ObservableReader</text><line style="stroke: #A80036; stroke-width: 1.5;" x1="39.5" x2="442.5" y1="492" y2="492"/><line style="stroke: #A80036; stroke-width: 1.5;" x1="39.5" x2="442.5" y1="500" y2="500"/><ellipse cx="49.5" cy="511" fill="#84BE84" rx="3" ry="3" style="stroke: #038048; stroke-width: 1.0;"/><text fill="#000000" font-family="sans-serif" font-size="11" lengthAdjust="spacingAndGlyphs" textLength="261" x="58.5" y="514.2104">void addObserver(ReaderObserver observer);</text><ellipse cx="49.5" cy="523.8047" fill="#84BE84" rx="3" ry="3" style="stroke: #038048; stroke-width: 1.0;"/><text fill="#000000" font-family="sans-serif" font-size="11" lengthAdjust="spacingAndGlyphs" textLength="283" x="58.5" y="527.0151">void removeObserver(ReaderObserver observer);</text><ellipse cx="49.5" cy="536.6094" fill="#84BE84" rx="3" ry="3" style="stroke: #038048; stroke-width: 1.0;"/><text fill="#000000" font-family="sans-serif" font-size="11" lengthAdjust="spacingAndGlyphs" textLength="236" x="58.5" y="539.8198">void notifyObservers(ReaderEvent event);</text><text fill="#000000" font-family="sans-serif" font-size="11" lengthAdjust="spacingAndGlyphs" textLength="0" x="62.5" y="552.6245"/><ellipse cx="49.5" cy="562.2188" fill="#84BE84" rx="3" ry="3" style="stroke: #038048; stroke-width: 1.0;"/><text fill="#000000" font-family="sans-serif" font-size="11" lengthAdjust="spacingAndGlyphs" textLength="379" x="58.5" y="565.4292">void setDefaultSelectionRequest(AbstractDefaultSelectionsRequest</text><text fill="#000000" font-family="sans-serif" font-size="11" lengthAdjust="spacingAndGlyphs" textLength="349" x="58.5" y="578.2339">defaultSelectionsRequest, NotificationMode notificationMode);</text><text fill="#000000" font-family="sans-serif" font-size="11" lengthAdjust="spacingAndGlyphs" textLength="0" x="62.5" y="591.0386"/><ellipse cx="49.5" cy="600.6328" fill="#84BE84" rx="3" ry="3" style="stroke: #038048; stroke-width: 1.0;"/><text fill="#000000" font-family="sans-serif" font-size="11" lengthAdjust="spacingAndGlyphs" textLength="245" x="58.5" y="603.8433">startSeDetection(PollingMode pollingMode);</text><ellipse cx="49.5" cy="613.4375" fill="#84BE84" rx="3" ry="3" style="stroke: #038048; stroke-width: 1.0;"/><text fill="#000000" font-family="sans-serif" font-size="11" lengthAdjust="spacingAndGlyphs" textLength="105" x="58.5" y="616.6479">stopSeDetection();</text><ellipse cx="49.5" cy="626.2422" fill="#84BE84" rx="3" ry="3" style="stroke: #038048; stroke-width: 1.0;"/><text fill="#000000" font-family="sans-serif" font-size="11" lengthAdjust="spacingAndGlyphs" textLength="118" x="58.5" y="629.4526">notifySeProcessed();</text><ellipse cx="241" cy="336.5" fill="#000000" rx="2" ry="2" style="stroke: none; stroke-width: 1.0;"/><!--MD5=[766d3442e39134c1882b7d68f6f3b242]
link EventType_Reader to ReaderEvent--><path d="M506,197.188 C506,216.941 506,238.637 506,258.869 " fill="none" id="EventType_Reader-&gt;ReaderEvent" style="stroke: #A80036; stroke-width: 1.0;"/><ellipse cx="506" cy="265.999" fill="#FFFFFF" rx="8" ry="8" style="stroke: #A80036; stroke-width: 1.0;"/><line style="stroke: #A80036; stroke-width: 1.0;" x1="506" x2="506" y1="257.999" y2="273.999"/><line style="stroke: #A80036; stroke-width: 1.0;" x1="514" x2="498" y1="265.999" y2="265.999"/><!--MD5=[ff05c798c0d0e38364e8144829ad24ca]
reverse link ObservableReader to NotificationMode--><path d="M210.331,650.703 C203.955,671.849 197.42,693.518 191.637,712.697 " fill="none" id="ObservableReader&lt;-NotificationMode" style="stroke: #A80036; stroke-width: 1.0;"/><ellipse cx="212.3997" cy="643.8434" fill="#FFFFFF" rx="8" ry="8" style="stroke: #A80036; stroke-width: 1.0;"/><line style="stroke: #A80036; stroke-width: 1.0;" x1="210.0903" x2="214.709" y1="651.5029" y2="636.184"/><line style="stroke: #A80036; stroke-width: 1.0;" x1="204.7402" x2="220.0591" y1="641.5341" y2="646.1528"/><!--MD5=[aa7d23f4fc0db106291b229919ad88ab]
reverse link ObservableReader to PollingMode--><path d="M302.342,649.237 C321.821,681.066 342.124,714.243 356.939,738.45 " fill="none" id="ObservableReader&lt;-PollingMode" style="stroke: #A80036; stroke-width: 1.0;"/><ellipse cx="298.53" cy="643.0076" fill="#FFFFFF" rx="8" ry="8" style="stroke: #A80036; stroke-width: 1.0;"/><line style="stroke: #A80036; stroke-width: 1.0;" x1="302.706" x2="294.354" y1="649.8312" y2="636.184"/><line style="stroke: #A80036; stroke-width: 1.0;" x1="291.7064" x2="305.3536" y1="647.1836" y2="638.8316"/><!--MD5=[2973bd10ac81e151e6e9190451ca72f2]
reverse link ReaderObserver to apoint2213707--><path d="M241,171.712 C241,228.116 241,321.787 241,334.14 " fill="none" id="ReaderObserver&lt;-apoint2213707" style="stroke: #A80036; stroke-width: 1.0;"/><polygon fill="#FFFFFF" points="241,158.586,237,164.586,241,170.586,245,164.586,241,158.586" style="stroke: #A80036; stroke-width: 1.0;"/><text fill="#000000" font-family="sans-serif" font-size="13" lengthAdjust="spacingAndGlyphs" textLength="58" x="242" y="240.0669">observes</text><polygon fill="#000000" points="266.5,249.1328,269.5,255.1328,272.5,249.1328,266.5,249.1328" style="stroke: #000000; stroke-width: 1.0;"/><text fill="#000000" font-family="sans-serif" font-size="13" lengthAdjust="spacingAndGlyphs" textLength="7" x="233.2781" y="178.542">*</text><!--MD5=[625ec954b55cea6b8581fa128604f7d8]
link apoint2213707 to ObservableReader--><path d="M241,338.838 C241,347.457 241,396.322 241,444.54 " fill="none" id="apoint2213707-&gt;ObservableReader" style="stroke: #A80036; stroke-width: 1.0;"/><ellipse cx="241" cy="451.779" fill="#FFFFFF" rx="8" ry="8" style="stroke: #A80036; stroke-width: 1.0;"/><line style="stroke: #A80036; stroke-width: 1.0;" x1="241" x2="241" y1="443.779" y2="459.779"/><line style="stroke: #A80036; stroke-width: 1.0;" x1="249" x2="233" y1="451.779" y2="451.779"/><text fill="#000000" font-family="sans-serif" font-size="13" lengthAdjust="spacingAndGlyphs" textLength="8" x="232.6688" y="448.9226">1</text><!--MD5=[25340e8ba18652f657ae004bf49df7dc]
link apoint2213707 to ReaderEvent--><path d="M243.07,336.5 C254.796,336.5 266.522,336.5 278.247,336.5 " fill="none" id="apoint2213707-ReaderEvent" style="stroke: #A80036; stroke-width: 1.0; stroke-dasharray: 7.0,7.0;"/><!--MD5=[fad704757e92dcc281ead66b52a4dd7e]
reverse link ObservableReader to AbstractDefaultSelectionsRequest--><path d="M448.755,548 C474.877,548 501.392,548 526.941,548 " fill="none" id="ObservableReader&lt;-AbstractDefaultSelectionsRequest" style="stroke: #A80036; stroke-width: 1.0;"/><polygon fill="#A80036" points="443.537,548,452.537,552,448.537,548,452.537,544,443.537,548" style="stroke: #A80036; stroke-width: 1.0;"/><polygon fill="#000000" points="468.75,535.0664,462.75,538.0664,468.75,541.0664,468.75,535.0664" style="stroke: #000000; stroke-width: 1.0;"/><text fill="#000000" font-family="sans-serif" font-size="13" lengthAdjust="spacingAndGlyphs" textLength="34" x="474.75" y="541.0669">is set</text><text fill="#000000" font-family="sans-serif" font-size="13" lengthAdjust="spacingAndGlyphs" textLength="8" x="451.6049" y="544.7756">1</text><text fill="#000000" font-family="sans-serif" font-size="13" lengthAdjust="spacingAndGlyphs" textLength="8" x="510.8274" y="544.7207">1</text><!--MD5=[a9b71dddf3b48afb2529446a6f0fee22]
link AbstractDefaultSelectionsResponse to ObservableReader--><path d="M584.835,744.795 C537.279,717.715 464.534,676.29 398.182,638.506 " fill="none" id="AbstractDefaultSelectionsResponse-&gt;ObservableReader" style="stroke: #A80036; stroke-width: 1.0;"/><polygon fill="#A80036" points="393.821,636.023,399.663,643.9521,398.1661,638.4969,403.6213,637,393.821,636.023" style="stroke: #A80036; stroke-width: 1.0;"/><text fill="#000000" font-family="sans-serif" font-size="13" lengthAdjust="spacingAndGlyphs" textLength="46" x="475" y="679.0669">returns</text><polygon fill="#000000" points="524,673.0664,530,676.0664,524,679.0664,524,673.0664" style="stroke: #000000; stroke-width: 1.0;"/><text fill="#000000" font-family="sans-serif" font-size="13" lengthAdjust="spacingAndGlyphs" textLength="8" x="565.251" y="734.016">1</text><text fill="#000000" font-family="sans-serif" font-size="13" lengthAdjust="spacingAndGlyphs" textLength="8" x="398.1452" y="656.004">1</text><!--MD5=[ccedb28a46d36cb0f26e61260b1180d8]
link AbstractDefaultSelectionsRequest to AbstractDefaultSelectionsResponse--><!--MD5=[7b69cde7c93a8a138ee671aed10bb982]
@startuml
package org.eclipse.keyple.core.seproxy.event #FFFFFF {

+enum "EventType" as EventType_Reader {
	IO_ERROR("SE Reader IO Error")
	SE_INSERTED("SE insertion")
	SE_MATCHED("SE matched")
	SE_REMOVAL("SE removal")

	+EventType(String name);
	+String getName();
}

+class "<b>final</b> ReaderEvent" as ReaderEvent {
	+ReaderEvent(String pluginName, String readerName, EventType eventType,
DefaultSelectionsResponse defaultSelectionsResponse);
	+String getPluginName();
	+String getReaderName();
	+EventType getEventType();
	+AbstractDefaultSelectionsResponse getDefaultSelectionsResponse();
}

EventType_Reader - -+ ReaderEvent

+interface ReaderObserver {
  +update(ReaderEvent event)
}

+enum NotificationMode {
	ALWAYS("always")
	MATCHED_ONLY("matched_only")

	+NotificationMode(String name);
	+String getName();
	+{static}NotificationMode get(String name);
}

+enum PollingMode {
	REPEATING,
	SINGLESHOT
}

+abstract AbstractDefaultSelectionsRequest {
    {abstract} #Set<SeRequest> getSelectionSeRequestSet()
    {abstract} #MultiSeRequestProcessing getMultiSeRequestProcessing()
    {abstract} #ChannelControl getChannelControl()
}

+abstract AbstractDefaultSelectionsResponse {
    {abstract} #List<SeResponse> getSelectionSeResponseSet()
}

+interface ObservableReader {  
	+void addObserver(ReaderObserver observer);
	+void removeObserver(ReaderObserver observer);
	+void notifyObservers(ReaderEvent event);

	+void setDefaultSelectionRequest(AbstractDefaultSelectionsRequest
defaultSelectionsRequest, NotificationMode notificationMode);

	+startSeDetection(PollingMode pollingMode);
	+stopSeDetection();
	+notifySeProcessed();
}

ObservableReader +-down- NotificationMode
ObservableReader +-down- PollingMode

ReaderObserver "1" +-down-o "*" ObservableReader : observes <
(ReaderObserver, ObservableReader) . ReaderEvent

AbstractDefaultSelectionsRequest "1" -left-> "1" ObservableReader : is set >
AbstractDefaultSelectionsResponse "1" - -> "1" ObservableReader : returns <
AbstractDefaultSelectionsRequest -down[hidden]- AbstractDefaultSelectionsResponse
}

@enduml

PlantUML version 1.2019.12(Sun Nov 03 10:24:54 UTC 2019)
(GPL source distribution)
Java Runtime: Java(TM) SE Runtime Environment
JVM: Java HotSpot(TM) 64-Bit Server VM
Java Version: 1.7.0_25-b15
Operating System: Linux
Default Encoding: UTF-8
Language: en
Country: US
--></g></svg>